<mxfile host="Electron" agent="Mozilla/5.0 (Macintosh; Intel Mac OS X 10_15_7) AppleWebKit/537.36 (KHTML, like Gecko) draw.io/24.7.8 Chrome/128.0.6613.36 Electron/32.0.1 Safari/537.36" version="24.7.8">
  <diagram name="第 1 页" id="B596-E31jCctFJMOlmVz">
    <mxGraphModel dx="1434" dy="907" grid="1" gridSize="10" guides="1" tooltips="1" connect="1" arrows="1" fold="1" page="1" pageScale="1" pageWidth="827" pageHeight="1169" math="0" shadow="0">
      <root>
        <mxCell id="0" />
        <mxCell id="1" parent="0" />
        <mxCell id="k0zwRFcfS9azqHRNkTsq-45" value="" style="rounded=0;whiteSpace=wrap;html=1;fillColor=#f5f5f5;strokeColor=#666666;fontColor=#333333;" vertex="1" parent="1">
          <mxGeometry x="730" y="330" width="155" height="210" as="geometry" />
        </mxCell>
        <mxCell id="k0zwRFcfS9azqHRNkTsq-30" value="" style="rounded=0;whiteSpace=wrap;html=1;fillColor=#f5f5f5;strokeColor=#666666;fontColor=#333333;" vertex="1" parent="1">
          <mxGeometry x="327.5" y="330" width="155" height="210" as="geometry" />
        </mxCell>
        <mxCell id="k0zwRFcfS9azqHRNkTsq-1" value="" style="rounded=0;whiteSpace=wrap;html=1;fillColor=#f5f5f5;strokeColor=#666666;fontColor=#333333;" vertex="1" parent="1">
          <mxGeometry x="172.5" y="330" width="155" height="210" as="geometry" />
        </mxCell>
        <mxCell id="k0zwRFcfS9azqHRNkTsq-29" style="edgeStyle=orthogonalEdgeStyle;rounded=0;orthogonalLoop=1;jettySize=auto;html=1;exitX=0.75;exitY=0;exitDx=0;exitDy=0;entryX=0.75;entryY=1;entryDx=0;entryDy=0;strokeWidth=2;fillColor=#f8cecc;strokeColor=#b85450;dashed=1;" edge="1" parent="1" source="k0zwRFcfS9azqHRNkTsq-2" target="k0zwRFcfS9azqHRNkTsq-4">
          <mxGeometry relative="1" as="geometry" />
        </mxCell>
        <mxCell id="k0zwRFcfS9azqHRNkTsq-2" value="&lt;font style=&quot;font-size: 15px;&quot;&gt;interrupt&lt;/font&gt;" style="rounded=0;whiteSpace=wrap;html=1;fillColor=#d5e8d4;strokeColor=#82b366;" vertex="1" parent="1">
          <mxGeometry x="190" y="470" width="120" height="50" as="geometry" />
        </mxCell>
        <mxCell id="k0zwRFcfS9azqHRNkTsq-4" value="&lt;font style=&quot;font-size: 15px;&quot;&gt;execute&lt;/font&gt;" style="rounded=0;whiteSpace=wrap;html=1;fillColor=#d5e8d4;strokeColor=#82b366;" vertex="1" parent="1">
          <mxGeometry x="190" y="350" width="120" height="50" as="geometry" />
        </mxCell>
        <mxCell id="k0zwRFcfS9azqHRNkTsq-55" style="edgeStyle=orthogonalEdgeStyle;rounded=0;orthogonalLoop=1;jettySize=auto;html=1;exitX=0.5;exitY=0;exitDx=0;exitDy=0;exitPerimeter=0;strokeWidth=2;" edge="1" parent="1" source="k0zwRFcfS9azqHRNkTsq-18" target="k0zwRFcfS9azqHRNkTsq-32">
          <mxGeometry relative="1" as="geometry">
            <Array as="points">
              <mxPoint x="1010" y="230" />
              <mxPoint x="1010" y="610" />
              <mxPoint x="405" y="610" />
            </Array>
          </mxGeometry>
        </mxCell>
        <mxCell id="k0zwRFcfS9azqHRNkTsq-56" style="edgeStyle=orthogonalEdgeStyle;rounded=0;orthogonalLoop=1;jettySize=auto;html=1;exitX=0.5;exitY=0;exitDx=0;exitDy=0;exitPerimeter=0;entryX=0.5;entryY=1;entryDx=0;entryDy=0;strokeWidth=2;" edge="1" parent="1" source="k0zwRFcfS9azqHRNkTsq-18" target="k0zwRFcfS9azqHRNkTsq-47">
          <mxGeometry relative="1" as="geometry">
            <Array as="points">
              <mxPoint x="1010" y="230" />
              <mxPoint x="1010" y="610" />
              <mxPoint x="808" y="610" />
            </Array>
          </mxGeometry>
        </mxCell>
        <mxCell id="k0zwRFcfS9azqHRNkTsq-58" style="edgeStyle=orthogonalEdgeStyle;rounded=0;orthogonalLoop=1;jettySize=auto;html=1;exitX=0.5;exitY=0;exitDx=0;exitDy=0;exitPerimeter=0;entryX=0.5;entryY=1;entryDx=0;entryDy=0;strokeWidth=2;" edge="1" parent="1" source="k0zwRFcfS9azqHRNkTsq-18" target="k0zwRFcfS9azqHRNkTsq-2">
          <mxGeometry relative="1" as="geometry">
            <Array as="points">
              <mxPoint x="1010" y="230" />
              <mxPoint x="1010" y="610" />
              <mxPoint x="250" y="610" />
            </Array>
          </mxGeometry>
        </mxCell>
        <mxCell id="k0zwRFcfS9azqHRNkTsq-18" value="&lt;font style=&quot;font-size: 15px;&quot;&gt;chan error（容量N+1）&lt;/font&gt;" style="shape=cylinder3;whiteSpace=wrap;html=1;boundedLbl=1;backgroundOutline=1;size=15;direction=south;fillColor=#fff2cc;strokeColor=#d6b656;" vertex="1" parent="1">
          <mxGeometry x="170" y="210" width="740" height="40" as="geometry" />
        </mxCell>
        <mxCell id="k0zwRFcfS9azqHRNkTsq-28" value="&lt;font style=&quot;font-size: 16px;&quot;&gt;退出信号&lt;/font&gt;" style="text;html=1;align=center;verticalAlign=middle;whiteSpace=wrap;rounded=0;" vertex="1" parent="1">
          <mxGeometry x="190" y="430" width="80" height="30" as="geometry" />
        </mxCell>
        <mxCell id="k0zwRFcfS9azqHRNkTsq-31" style="edgeStyle=orthogonalEdgeStyle;rounded=0;orthogonalLoop=1;jettySize=auto;html=1;exitX=0.75;exitY=0;exitDx=0;exitDy=0;entryX=0.75;entryY=1;entryDx=0;entryDy=0;strokeWidth=2;fillColor=#f8cecc;strokeColor=#b85450;dashed=1;" edge="1" parent="1" source="k0zwRFcfS9azqHRNkTsq-32" target="k0zwRFcfS9azqHRNkTsq-33">
          <mxGeometry relative="1" as="geometry" />
        </mxCell>
        <mxCell id="k0zwRFcfS9azqHRNkTsq-32" value="&lt;font style=&quot;font-size: 15px;&quot;&gt;interrupt&lt;/font&gt;" style="rounded=0;whiteSpace=wrap;html=1;fillColor=#d5e8d4;strokeColor=#82b366;" vertex="1" parent="1">
          <mxGeometry x="345" y="470" width="120" height="50" as="geometry" />
        </mxCell>
        <mxCell id="k0zwRFcfS9azqHRNkTsq-33" value="&lt;font style=&quot;font-size: 15px;&quot;&gt;execute&lt;/font&gt;" style="rounded=0;whiteSpace=wrap;html=1;fillColor=#d5e8d4;strokeColor=#82b366;" vertex="1" parent="1">
          <mxGeometry x="345" y="350" width="120" height="50" as="geometry" />
        </mxCell>
        <mxCell id="k0zwRFcfS9azqHRNkTsq-34" value="&lt;font style=&quot;font-size: 16px;&quot;&gt;退出信号&lt;/font&gt;" style="text;html=1;align=center;verticalAlign=middle;whiteSpace=wrap;rounded=0;" vertex="1" parent="1">
          <mxGeometry x="345" y="430" width="80" height="30" as="geometry" />
        </mxCell>
        <mxCell id="k0zwRFcfS9azqHRNkTsq-35" value="" style="rounded=0;whiteSpace=wrap;html=1;fillColor=#f5f5f5;strokeColor=#666666;fontColor=#333333;" vertex="1" parent="1">
          <mxGeometry x="482.5" y="330" width="155" height="210" as="geometry" />
        </mxCell>
        <mxCell id="k0zwRFcfS9azqHRNkTsq-36" style="edgeStyle=orthogonalEdgeStyle;rounded=0;orthogonalLoop=1;jettySize=auto;html=1;exitX=0.75;exitY=0;exitDx=0;exitDy=0;entryX=0.75;entryY=1;entryDx=0;entryDy=0;strokeWidth=2;fillColor=#f8cecc;strokeColor=#b85450;dashed=1;" edge="1" parent="1" source="k0zwRFcfS9azqHRNkTsq-37" target="k0zwRFcfS9azqHRNkTsq-38">
          <mxGeometry relative="1" as="geometry" />
        </mxCell>
        <mxCell id="k0zwRFcfS9azqHRNkTsq-37" value="&lt;font style=&quot;font-size: 15px;&quot;&gt;interrupt&lt;/font&gt;" style="rounded=0;whiteSpace=wrap;html=1;fillColor=#d5e8d4;strokeColor=#82b366;" vertex="1" parent="1">
          <mxGeometry x="500" y="470" width="120" height="50" as="geometry" />
        </mxCell>
        <mxCell id="k0zwRFcfS9azqHRNkTsq-38" value="&lt;font style=&quot;font-size: 15px;&quot;&gt;execute&lt;/font&gt;" style="rounded=0;whiteSpace=wrap;html=1;fillColor=#d5e8d4;strokeColor=#82b366;" vertex="1" parent="1">
          <mxGeometry x="500" y="350" width="120" height="50" as="geometry" />
        </mxCell>
        <mxCell id="k0zwRFcfS9azqHRNkTsq-39" value="&lt;font style=&quot;font-size: 16px;&quot;&gt;退出信号&lt;/font&gt;" style="text;html=1;align=center;verticalAlign=middle;whiteSpace=wrap;rounded=0;" vertex="1" parent="1">
          <mxGeometry x="500" y="430" width="80" height="30" as="geometry" />
        </mxCell>
        <mxCell id="k0zwRFcfS9azqHRNkTsq-46" style="edgeStyle=orthogonalEdgeStyle;rounded=0;orthogonalLoop=1;jettySize=auto;html=1;exitX=0.75;exitY=0;exitDx=0;exitDy=0;entryX=0.75;entryY=1;entryDx=0;entryDy=0;strokeWidth=2;fillColor=#f8cecc;strokeColor=#b85450;dashed=1;" edge="1" parent="1" source="k0zwRFcfS9azqHRNkTsq-47" target="k0zwRFcfS9azqHRNkTsq-48">
          <mxGeometry relative="1" as="geometry" />
        </mxCell>
        <mxCell id="k0zwRFcfS9azqHRNkTsq-47" value="&lt;font style=&quot;font-size: 15px;&quot;&gt;interrupt&lt;/font&gt;" style="rounded=0;whiteSpace=wrap;html=1;fillColor=#d5e8d4;strokeColor=#82b366;" vertex="1" parent="1">
          <mxGeometry x="747.5" y="470" width="120" height="50" as="geometry" />
        </mxCell>
        <mxCell id="k0zwRFcfS9azqHRNkTsq-48" value="&lt;font style=&quot;font-size: 15px;&quot;&gt;execute&lt;/font&gt;" style="rounded=0;whiteSpace=wrap;html=1;fillColor=#d5e8d4;strokeColor=#82b366;" vertex="1" parent="1">
          <mxGeometry x="747.5" y="350" width="120" height="50" as="geometry" />
        </mxCell>
        <mxCell id="k0zwRFcfS9azqHRNkTsq-49" value="&lt;font style=&quot;font-size: 16px;&quot;&gt;退出信号&lt;/font&gt;" style="text;html=1;align=center;verticalAlign=middle;whiteSpace=wrap;rounded=0;" vertex="1" parent="1">
          <mxGeometry x="747.5" y="430" width="80" height="30" as="geometry" />
        </mxCell>
        <mxCell id="k0zwRFcfS9azqHRNkTsq-50" value="&lt;font style=&quot;font-size: 60px;&quot;&gt;...&lt;/font&gt;" style="text;html=1;align=center;verticalAlign=middle;whiteSpace=wrap;rounded=0;" vertex="1" parent="1">
          <mxGeometry x="660" y="420" width="60" height="30" as="geometry" />
        </mxCell>
        <mxCell id="k0zwRFcfS9azqHRNkTsq-51" style="edgeStyle=orthogonalEdgeStyle;rounded=0;orthogonalLoop=1;jettySize=auto;html=1;exitX=0.5;exitY=0;exitDx=0;exitDy=0;entryX=1.05;entryY=0.892;entryDx=0;entryDy=0;entryPerimeter=0;strokeColor=#FF6666;" edge="1" parent="1" source="k0zwRFcfS9azqHRNkTsq-4" target="k0zwRFcfS9azqHRNkTsq-18">
          <mxGeometry relative="1" as="geometry" />
        </mxCell>
        <mxCell id="k0zwRFcfS9azqHRNkTsq-52" style="edgeStyle=orthogonalEdgeStyle;rounded=0;orthogonalLoop=1;jettySize=auto;html=1;exitX=0.5;exitY=0;exitDx=0;exitDy=0;entryX=0.975;entryY=0.682;entryDx=0;entryDy=0;entryPerimeter=0;strokeColor=#FF6666;" edge="1" parent="1" source="k0zwRFcfS9azqHRNkTsq-33" target="k0zwRFcfS9azqHRNkTsq-18">
          <mxGeometry relative="1" as="geometry" />
        </mxCell>
        <mxCell id="k0zwRFcfS9azqHRNkTsq-53" style="edgeStyle=orthogonalEdgeStyle;rounded=0;orthogonalLoop=1;jettySize=auto;html=1;exitX=0.5;exitY=0;exitDx=0;exitDy=0;entryX=1.05;entryY=0.474;entryDx=0;entryDy=0;entryPerimeter=0;strokeColor=#FF6666;" edge="1" parent="1" source="k0zwRFcfS9azqHRNkTsq-38" target="k0zwRFcfS9azqHRNkTsq-18">
          <mxGeometry relative="1" as="geometry" />
        </mxCell>
        <mxCell id="k0zwRFcfS9azqHRNkTsq-54" style="edgeStyle=orthogonalEdgeStyle;rounded=0;orthogonalLoop=1;jettySize=auto;html=1;exitX=0.5;exitY=0;exitDx=0;exitDy=0;entryX=0.925;entryY=0.138;entryDx=0;entryDy=0;entryPerimeter=0;strokeColor=#FF6666;" edge="1" parent="1" source="k0zwRFcfS9azqHRNkTsq-48" target="k0zwRFcfS9azqHRNkTsq-18">
          <mxGeometry relative="1" as="geometry" />
        </mxCell>
        <mxCell id="k0zwRFcfS9azqHRNkTsq-57" style="edgeStyle=orthogonalEdgeStyle;rounded=0;orthogonalLoop=1;jettySize=auto;html=1;exitX=0.5;exitY=1;exitDx=0;exitDy=0;entryX=0.5;entryY=0;entryDx=0;entryDy=0;entryPerimeter=0;endArrow=none;endFill=0;startArrow=classic;startFill=1;strokeWidth=2;" edge="1" parent="1" source="k0zwRFcfS9azqHRNkTsq-37" target="k0zwRFcfS9azqHRNkTsq-18">
          <mxGeometry relative="1" as="geometry">
            <Array as="points">
              <mxPoint x="560" y="610" />
              <mxPoint x="1010" y="610" />
              <mxPoint x="1010" y="230" />
            </Array>
          </mxGeometry>
        </mxCell>
        <mxCell id="k0zwRFcfS9azqHRNkTsq-71" style="edgeStyle=orthogonalEdgeStyle;rounded=0;orthogonalLoop=1;jettySize=auto;html=1;exitX=1;exitY=0.5;exitDx=0;exitDy=0;entryX=0;entryY=0.5;entryDx=0;entryDy=0;strokeWidth=2;" edge="1" parent="1" source="k0zwRFcfS9azqHRNkTsq-65">
          <mxGeometry relative="1" as="geometry">
            <mxPoint x="1160" y="415" as="targetPoint" />
          </mxGeometry>
        </mxCell>
        <mxCell id="k0zwRFcfS9azqHRNkTsq-65" value="&lt;font style=&quot;font-size: 16px;&quot;&gt;接收的erro是否是&lt;/font&gt;&lt;div style=&quot;font-size: 16px;&quot;&gt;&lt;font style=&quot;font-size: 16px;&quot;&gt;第一个error?&lt;/font&gt;&lt;/div&gt;" style="rhombus;whiteSpace=wrap;html=1;fillColor=#f8cecc;strokeColor=#b85450;" vertex="1" parent="1">
          <mxGeometry x="940" y="360" width="140" height="110" as="geometry" />
        </mxCell>
        <mxCell id="k0zwRFcfS9azqHRNkTsq-68" value="&lt;font style=&quot;font-size: 16px;&quot;&gt;NO&lt;/font&gt;" style="text;html=1;align=center;verticalAlign=middle;whiteSpace=wrap;rounded=0;" vertex="1" parent="1">
          <mxGeometry x="1090" y="380" width="60" height="30" as="geometry" />
        </mxCell>
        <mxCell id="k0zwRFcfS9azqHRNkTsq-69" value="&lt;font style=&quot;font-size: 16px;&quot;&gt;YES&lt;/font&gt;" style="text;html=1;align=center;verticalAlign=middle;whiteSpace=wrap;rounded=0;" vertex="1" parent="1">
          <mxGeometry x="940" y="460" width="60" height="30" as="geometry" />
        </mxCell>
        <mxCell id="k0zwRFcfS9azqHRNkTsq-79" style="edgeStyle=orthogonalEdgeStyle;rounded=0;orthogonalLoop=1;jettySize=auto;html=1;exitX=0.5;exitY=1;exitDx=0;exitDy=0;entryX=0.5;entryY=1;entryDx=0;entryDy=0;strokeWidth=2;" edge="1" parent="1" source="k0zwRFcfS9azqHRNkTsq-72" target="k0zwRFcfS9azqHRNkTsq-77">
          <mxGeometry relative="1" as="geometry">
            <Array as="points">
              <mxPoint x="1420" y="610" />
              <mxPoint x="1220" y="610" />
            </Array>
          </mxGeometry>
        </mxCell>
        <mxCell id="k0zwRFcfS9azqHRNkTsq-84" style="edgeStyle=orthogonalEdgeStyle;rounded=0;orthogonalLoop=1;jettySize=auto;html=1;exitX=1;exitY=0.5;exitDx=0;exitDy=0;entryX=0;entryY=0.5;entryDx=0;entryDy=0;strokeWidth=2;" edge="1" parent="1" source="k0zwRFcfS9azqHRNkTsq-72" target="k0zwRFcfS9azqHRNkTsq-83">
          <mxGeometry relative="1" as="geometry" />
        </mxCell>
        <mxCell id="k0zwRFcfS9azqHRNkTsq-72" value="&lt;span style=&quot;font-size: 16px;&quot;&gt;&lt;font style=&quot;font-size: 16px;&quot;&gt;接收的error的数量&lt;/font&gt;&lt;/span&gt;&lt;div style=&quot;font-size: 16px;&quot;&gt;&lt;font style=&quot;font-size: 16px;&quot;&gt;是否与actor的数量相等&lt;/font&gt;&lt;/div&gt;" style="rhombus;whiteSpace=wrap;html=1;fillColor=#f8cecc;strokeColor=#b85450;" vertex="1" parent="1">
          <mxGeometry x="1350" y="352.5" width="139" height="125" as="geometry" />
        </mxCell>
        <mxCell id="k0zwRFcfS9azqHRNkTsq-73" value="&lt;font style=&quot;font-size: 16px;&quot;&gt;actor_0&lt;/font&gt;" style="text;html=1;align=center;verticalAlign=middle;whiteSpace=wrap;rounded=0;" vertex="1" parent="1">
          <mxGeometry x="170" y="550" width="60" height="30" as="geometry" />
        </mxCell>
        <mxCell id="k0zwRFcfS9azqHRNkTsq-74" value="&lt;font style=&quot;font-size: 16px;&quot;&gt;actor_1&lt;/font&gt;" style="text;html=1;align=center;verticalAlign=middle;whiteSpace=wrap;rounded=0;" vertex="1" parent="1">
          <mxGeometry x="327.5" y="550" width="60" height="30" as="geometry" />
        </mxCell>
        <mxCell id="k0zwRFcfS9azqHRNkTsq-75" value="&lt;font style=&quot;font-size: 16px;&quot;&gt;actor_2&lt;/font&gt;" style="text;html=1;align=center;verticalAlign=middle;whiteSpace=wrap;rounded=0;" vertex="1" parent="1">
          <mxGeometry x="482.5" y="550" width="60" height="30" as="geometry" />
        </mxCell>
        <mxCell id="k0zwRFcfS9azqHRNkTsq-76" value="&lt;font style=&quot;font-size: 16px;&quot;&gt;actor_N&lt;/font&gt;" style="text;html=1;align=center;verticalAlign=middle;whiteSpace=wrap;rounded=0;" vertex="1" parent="1">
          <mxGeometry x="730" y="550" width="60" height="30" as="geometry" />
        </mxCell>
        <mxCell id="k0zwRFcfS9azqHRNkTsq-78" style="edgeStyle=orthogonalEdgeStyle;rounded=0;orthogonalLoop=1;jettySize=auto;html=1;exitX=1;exitY=0.5;exitDx=0;exitDy=0;entryX=0;entryY=0.5;entryDx=0;entryDy=0;strokeWidth=2;" edge="1" parent="1" source="k0zwRFcfS9azqHRNkTsq-77" target="k0zwRFcfS9azqHRNkTsq-72">
          <mxGeometry relative="1" as="geometry" />
        </mxCell>
        <mxCell id="k0zwRFcfS9azqHRNkTsq-77" value="&lt;font style=&quot;font-size: 16px;&quot;&gt;等待接收error&lt;/font&gt;" style="rounded=0;whiteSpace=wrap;html=1;fillColor=#f8cecc;strokeColor=#b85450;" vertex="1" parent="1">
          <mxGeometry x="1160" y="385" width="120" height="60" as="geometry" />
        </mxCell>
        <mxCell id="k0zwRFcfS9azqHRNkTsq-83" value="&lt;font style=&quot;font-size: 16px;&quot;&gt;退出&lt;/font&gt;" style="rounded=0;whiteSpace=wrap;html=1;fillColor=#ffe6cc;strokeColor=#d79b00;" vertex="1" parent="1">
          <mxGeometry x="1560" y="385" width="120" height="60" as="geometry" />
        </mxCell>
        <mxCell id="k0zwRFcfS9azqHRNkTsq-85" value="&lt;font style=&quot;font-size: 18px;&quot;&gt;确保所有的execute都退出了&lt;/font&gt;" style="text;html=1;align=center;verticalAlign=middle;whiteSpace=wrap;rounded=0;" vertex="1" parent="1">
          <mxGeometry x="1430" y="507.5" width="270" height="30" as="geometry" />
        </mxCell>
        <mxCell id="k0zwRFcfS9azqHRNkTsq-86" value="&lt;font style=&quot;font-size: 16px;&quot;&gt;NO&lt;/font&gt;" style="text;html=1;align=center;verticalAlign=middle;whiteSpace=wrap;rounded=0;" vertex="1" parent="1">
          <mxGeometry x="1360" y="490" width="60" height="30" as="geometry" />
        </mxCell>
        <mxCell id="k0zwRFcfS9azqHRNkTsq-87" value="&lt;font style=&quot;font-size: 16px;&quot;&gt;YES&lt;/font&gt;" style="text;html=1;align=center;verticalAlign=middle;whiteSpace=wrap;rounded=0;" vertex="1" parent="1">
          <mxGeometry x="1489" y="430" width="60" height="30" as="geometry" />
        </mxCell>
        <mxCell id="k0zwRFcfS9azqHRNkTsq-89" value="&lt;font style=&quot;font-size: 16px;&quot;&gt;error&lt;/font&gt;" style="text;html=1;align=center;verticalAlign=middle;whiteSpace=wrap;rounded=0;fillColor=#ffe6cc;strokeColor=#d79b00;strokeWidth=3;dashed=1;" vertex="1" parent="1">
          <mxGeometry x="570" y="280" width="60" height="30" as="geometry" />
        </mxCell>
        <mxCell id="k0zwRFcfS9azqHRNkTsq-90" value="&lt;font style=&quot;font-size: 16px;&quot;&gt;error&lt;/font&gt;" style="text;html=1;align=center;verticalAlign=middle;whiteSpace=wrap;rounded=0;fillColor=#ffe6cc;strokeColor=#d79b00;dashed=1;strokeWidth=3;" vertex="1" parent="1">
          <mxGeometry x="820" y="280" width="60" height="30" as="geometry" />
        </mxCell>
        <mxCell id="k0zwRFcfS9azqHRNkTsq-91" value="&lt;font style=&quot;font-size: 16px;&quot;&gt;error&lt;/font&gt;" style="text;html=1;align=center;verticalAlign=middle;whiteSpace=wrap;rounded=0;fillColor=#e1d5e7;strokeColor=#9673a6;strokeWidth=3;" vertex="1" parent="1">
          <mxGeometry x="1020" y="280" width="60" height="30" as="geometry" />
        </mxCell>
        <mxCell id="k0zwRFcfS9azqHRNkTsq-92" value="&lt;font style=&quot;font-size: 16px;&quot;&gt;error&lt;/font&gt;" style="text;html=1;align=center;verticalAlign=middle;whiteSpace=wrap;rounded=0;fillColor=#ffe6cc;strokeColor=#d79b00;dashed=1;strokeWidth=3;" vertex="1" parent="1">
          <mxGeometry x="414" y="280" width="60" height="30" as="geometry" />
        </mxCell>
        <mxCell id="k0zwRFcfS9azqHRNkTsq-94" value="&lt;font style=&quot;font-size: 16px;&quot;&gt;error&lt;/font&gt;" style="text;html=1;align=center;verticalAlign=middle;whiteSpace=wrap;rounded=0;fillColor=#ffe6cc;strokeColor=#d79b00;dashed=1;strokeWidth=3;" vertex="1" parent="1">
          <mxGeometry x="260" y="280" width="60" height="30" as="geometry" />
        </mxCell>
        <mxCell id="k0zwRFcfS9azqHRNkTsq-97" value="" style="endArrow=none;dashed=1;html=1;dashPattern=1 3;strokeWidth=2;rounded=0;" edge="1" parent="1">
          <mxGeometry width="50" height="50" relative="1" as="geometry">
            <mxPoint x="1720" y="640" as="sourcePoint" />
            <mxPoint x="1710" y="650" as="targetPoint" />
          </mxGeometry>
        </mxCell>
        <mxCell id="k0zwRFcfS9azqHRNkTsq-98" value="&lt;font color=&quot;#e6e6e6&quot;&gt;tyltr&lt;/font&gt;" style="text;html=1;align=center;verticalAlign=middle;whiteSpace=wrap;rounded=0;" vertex="1" parent="1">
          <mxGeometry x="327.5" y="260" width="60" height="30" as="geometry" />
        </mxCell>
        <mxCell id="k0zwRFcfS9azqHRNkTsq-99" value="" style="endArrow=none;dashed=1;html=1;dashPattern=1 3;strokeWidth=2;rounded=0;" edge="1" parent="1">
          <mxGeometry width="50" height="50" relative="1" as="geometry">
            <mxPoint x="140" y="190" as="sourcePoint" />
            <mxPoint x="160" y="170" as="targetPoint" />
            <Array as="points">
              <mxPoint x="140" y="170" />
            </Array>
          </mxGeometry>
        </mxCell>
        <mxCell id="k0zwRFcfS9azqHRNkTsq-100" value="&lt;font color=&quot;#e6e6e6&quot;&gt;tyltr&lt;/font&gt;" style="text;html=1;align=center;verticalAlign=middle;whiteSpace=wrap;rounded=0;" vertex="1" parent="1">
          <mxGeometry x="867.5" y="550" width="60" height="30" as="geometry" />
        </mxCell>
        <mxCell id="k0zwRFcfS9azqHRNkTsq-101" value="&lt;font color=&quot;#e6e6e6&quot;&gt;tyltr&lt;/font&gt;" style="text;html=1;align=center;verticalAlign=middle;whiteSpace=wrap;rounded=0;" vertex="1" parent="1">
          <mxGeometry x="660" y="430" width="60" height="30" as="geometry" />
        </mxCell>
        <mxCell id="k0zwRFcfS9azqHRNkTsq-102" value="&lt;font color=&quot;#e6e6e6&quot;&gt;tyltr&lt;/font&gt;" style="text;html=1;align=center;verticalAlign=middle;whiteSpace=wrap;rounded=0;" vertex="1" parent="1">
          <mxGeometry x="1050" y="507.5" width="60" height="30" as="geometry" />
        </mxCell>
        <mxCell id="k0zwRFcfS9azqHRNkTsq-103" value="&lt;font color=&quot;#e6e6e6&quot;&gt;tyltr&lt;/font&gt;" style="text;html=1;align=center;verticalAlign=middle;whiteSpace=wrap;rounded=0;" vertex="1" parent="1">
          <mxGeometry x="440" y="430" width="60" height="30" as="geometry" />
        </mxCell>
        <mxCell id="k0zwRFcfS9azqHRNkTsq-104" value="&lt;font color=&quot;#e6e6e6&quot;&gt;tyltr&lt;/font&gt;" style="text;html=1;align=center;verticalAlign=middle;whiteSpace=wrap;rounded=0;" vertex="1" parent="1">
          <mxGeometry x="1280" y="447.5" width="60" height="30" as="geometry" />
        </mxCell>
        <mxCell id="k0zwRFcfS9azqHRNkTsq-105" value="&lt;font color=&quot;#e6e6e6&quot;&gt;tyltr&lt;/font&gt;" style="text;html=1;align=center;verticalAlign=middle;whiteSpace=wrap;rounded=0;" vertex="1" parent="1">
          <mxGeometry x="1570" y="215" width="60" height="30" as="geometry" />
        </mxCell>
      </root>
    </mxGraphModel>
  </diagram>
</mxfile>
